<svg width="907" height="200" viewBox="0 0 907 200" fill="none" xmlns="http://www.w3.org/2000/svg">
<mask id="mask0" mask-type="alpha" maskUnits="userSpaceOnUse" x="0" y="0" width="200" height="200">
<circle cx="100" cy="100" r="100" fill="#C4C4C4"/>
</mask>
<g mask="url(#mask0)">
<path d="M196.799 100C196.799 155.229 154.771 198.933 99.5427 198.933C98.2666 198.933 95.9291 198.98 94.6646 198.933C55.5645 197.468 25.7622 173.933 9.60366 141.464C9.581 141.413 8.58519 140.6 8.56262 140.549C3.05843 128.155 0 114.435 0 100C0 44.7716 44.7715 0.00012207 100 0.00012207C142.073 8.07935 196.799 44.7716 196.799 100Z" fill="#262626"/>
<path fill-rule="evenodd" clip-rule="evenodd" d="M172.071 131.57C176.396 121.607 178.629 110.862 178.629 100H199.36C199.36 113.702 196.544 127.258 191.087 139.827C185.63 152.395 177.648 163.708 167.637 173.064C157.625 182.419 145.798 189.617 132.889 194.212C121.064 198.42 108.561 200.361 96.0366 199.945L93.9966 179.087C104.833 179.822 115.705 178.322 125.938 174.68C136.171 171.038 145.546 165.332 153.482 157.916C161.418 150.501 167.745 141.533 172.071 131.57Z" fill="url(#paint0_linear)"/>
<path fill-rule="evenodd" clip-rule="evenodd" d="M107.834 21.186C101.859 20.5435 95.8529 20.585 89.9299 21.2947C78.5614 22.6568 66.4502 17.7925 62.1948 7.16282C77.3685 1.08841 93.7997 -1.17418 110.05 0.573082C126.301 2.32035 141.876 8.0242 155.411 17.1854C168.947 26.3466 180.03 38.6859 187.692 53.1232C195.354 67.5605 199.36 83.6557 199.36 100H178.628C178.628 87.0441 175.453 74.2857 169.379 62.8415C163.306 51.3973 154.52 41.6162 143.791 34.3543C133.062 27.0924 120.716 22.571 107.834 21.186Z" fill="url(#paint1_linear)"/>
<path d="M178.659 99.39L199.084 99.3901C199.084 99.5933 199.086 100.406 199.084 100.61H178.659C178.66 100.406 178.657 99.9997 178.659 99.39Z" fill="#F8D742"/>
<circle cx="99.8479" cy="110.518" r="89.4817" fill="url(#paint2_linear)" fill-opacity="0.25"/>
<path fill-rule="evenodd" clip-rule="evenodd" d="M8.56836 140.562C13.4503 136.854 21.1688 133.242 36.7027 134.712L37.1375 134.235C34.1728 129.781 32.8045 124.448 33.2575 119.11C33.7105 113.772 35.9578 108.748 39.6301 104.863C43.3025 100.978 48.1813 98.464 53.4648 97.7334C58.7483 97.0027 64.1221 98.0992 68.703 100.843C69.2489 99.8372 71.2711 97.024 77.6509 93.3274C85.5271 88.737 87.6402 88.4425 95.9411 88.8284C96.2343 88.8921 96.5376 88.8921 96.8308 88.8284C98.3289 87.8457 99.7155 86.7014 100.966 85.4161C103.08 83.1913 104.911 80.7112 106.416 78.0329C109.692 72.3445 111.639 65.9825 112.108 59.4276C112.391 54.4107 111.582 47.2407 106.042 41.5231C103.537 38.9266 100.543 36.8554 97.2352 35.4296H97.0836C96.7292 35.2798 96.4294 35.024 96.2249 34.6969C96.0205 34.3698 95.9214 33.9873 95.9411 33.6016C95.9281 33.3314 95.9715 33.0615 96.0685 32.8091C96.1655 32.5568 96.314 32.3276 96.5044 32.1363C96.6949 31.9451 96.923 31.7959 97.1742 31.6985C97.4255 31.601 97.6942 31.5574 97.9632 31.5705H98.2059C102.511 32.061 106.683 33.3707 110.5 35.4296C114.573 37.6958 118.077 40.8674 120.743 44.7018C123.486 48.5797 125.478 52.9412 126.617 57.5589C128.807 66.7044 128.897 76.2305 126.88 85.4161C125.927 90.0896 124.385 94.6218 122.289 98.9028C120.33 103.1 117.78 106.992 114.717 110.46C114.651 110.542 114.609 110.64 114.595 110.743C114.581 110.847 114.595 110.953 114.636 111.049C114.679 111.131 114.745 111.199 114.826 111.244C114.906 111.289 114.998 111.31 115.091 111.303C115.853 111.254 116.606 111.115 117.335 110.887L117.719 110.795C119.913 110.115 122.128 108.256 124.483 105.098C124.52 105.045 124.572 105.006 124.632 104.986C124.692 104.966 124.757 104.966 124.817 104.986C124.989 105.047 125.161 105.23 125.07 106.631C125.07 109.262 123.26 129.502 115.374 141.405C111.293 147.244 106.192 152.291 100.319 156.303C98.2732 157.698 96.6333 159.615 95.5674 161.856C94.5014 164.098 94.0477 166.583 94.2526 169.059V169.333C94.6975 175.538 95.5468 187.765 96.1028 199.739C96.1127 199.76 96.1178 199.782 96.1178 199.805C96.1178 199.828 96.1127 199.85 96.1028 199.871C96.0968 199.879 96.0902 199.885 96.083 199.892C96.0714 199.902 96.0584 199.91 96.0443 199.917C96.0398 199.919 96.0353 199.921 96.0307 199.923C56.9452 198.397 23.6193 174.438 8.56836 140.562ZM89.1871 98.4865C90.2598 98.4865 91.2884 98.9145 92.0469 99.6763C92.8053 100.438 93.2314 101.471 93.2314 102.549C93.241 103.085 93.143 103.617 92.9431 104.115C92.7433 104.612 92.4457 105.064 92.0683 105.443C91.6908 105.822 91.2411 106.121 90.7461 106.321C90.2511 106.522 89.7209 106.621 89.1871 106.611C88.1145 106.611 87.0859 106.183 86.3274 105.421C85.569 104.659 85.1429 103.626 85.1429 102.549C85.1429 101.471 85.569 100.438 86.3274 99.6763C87.0859 98.9145 88.1145 98.4865 89.1871 98.4865Z" fill="white"/>
</g>
<path d="M265.753 56.0104C270.873 55.9155 275.983 56.4699 280.963 57.6604C284.648 58.5411 288.126 60.1307 291.203 62.3404C293.745 64.2275 295.735 66.7624 296.963 69.6804C298.207 72.7432 298.823 76.0249 298.773 79.3304C298.777 81.2247 298.497 83.1089 297.943 84.9204C297.376 86.7263 296.496 88.4186 295.343 89.9204C294.052 91.5758 292.514 93.0227 290.783 94.2104C288.715 95.6238 286.469 96.757 284.103 97.5804C289.783 98.9604 293.983 101.19 296.703 104.27C299.423 107.35 300.783 111.35 300.783 116.27C300.813 119.797 300.087 123.288 298.653 126.51C297.214 129.691 295.082 132.51 292.413 134.76C289.425 137.246 285.976 139.119 282.263 140.27C277.801 141.662 273.147 142.337 268.473 142.27H234.033V56.0104H265.753ZM254.033 70.9804V92.2804H264.443C266.453 92.3019 268.461 92.1446 270.443 91.8104C272.047 91.5575 273.586 90.9936 274.973 90.1504C276.205 89.3636 277.184 88.2388 277.793 86.9104C278.504 85.2678 278.845 83.4893 278.793 81.7004C278.84 79.9617 278.58 78.2284 278.023 76.5804C277.559 75.2851 276.737 74.1478 275.653 73.3004C274.453 72.4122 273.069 71.8039 271.603 71.5204C269.683 71.1425 267.73 70.9649 265.773 70.9904L254.033 70.9804ZM268.123 127.14C270.323 127.215 272.518 126.875 274.593 126.14C276.089 125.594 277.438 124.707 278.533 123.55C279.465 122.518 280.134 121.276 280.483 119.93C280.839 118.6 281.017 117.228 281.013 115.85C281.037 114.406 280.827 112.968 280.393 111.59C279.996 110.346 279.258 109.237 278.263 108.39C277.093 107.437 275.728 106.755 274.263 106.39C272.211 105.872 270.099 105.633 267.983 105.68H254.033V127.16L268.123 127.14Z" fill="black"/>
<path d="M327.303 90.3304C328.94 87.3194 331.16 84.6644 333.833 82.5204C336.262 80.637 339.26 79.6356 342.333 79.6804C344.739 79.5866 347.108 80.2897 349.073 81.6804L347.893 95.1704C347.795 95.8681 347.438 96.5034 346.893 96.9504C346.338 97.2995 345.688 97.4673 345.033 97.4304C344.713 97.4304 344.303 97.4304 343.783 97.3604C343.263 97.2904 342.783 97.2704 342.193 97.2204L340.503 97.0404C339.985 96.9833 339.464 96.9533 338.943 96.9504C336.609 96.8298 334.314 97.59 332.513 99.0804C330.752 100.738 329.37 102.758 328.463 105V142.28H310.133V80.9104H321.033C321.8 80.8945 322.566 80.9751 323.313 81.1504C323.874 81.2833 324.399 81.5357 324.853 81.8904C325.279 82.242 325.604 82.7012 325.793 83.2204C326.041 83.8693 326.231 84.5385 326.363 85.2204L327.303 90.3304Z" fill="black"/>
<path d="M403.343 130.91C401.348 132.892 399.223 134.74 396.983 136.44C394.997 137.948 392.855 139.239 390.593 140.29C388.359 141.313 386.008 142.058 383.593 142.51C380.929 143.005 378.223 143.243 375.513 143.22C372.09 143.261 368.693 142.629 365.513 141.36C362.557 140.171 359.883 138.376 357.663 136.09C355.419 133.738 353.686 130.946 352.573 127.89C351.336 124.478 350.726 120.87 350.773 117.24C350.766 114.012 351.132 110.794 351.863 107.65C352.569 104.596 353.633 101.635 355.033 98.8304C356.38 96.1066 358.059 93.5605 360.033 91.2504C361.967 88.9538 364.208 86.9348 366.693 85.2504C371.862 81.7875 377.951 79.9552 384.173 79.9904C387.145 79.9372 390.102 80.4182 392.903 81.4104C395.252 82.2341 397.429 83.4851 399.323 85.1004C400.993 86.5155 402.354 88.2581 403.323 90.2204C404.189 91.9924 404.64 93.9382 404.643 95.9104C404.701 98.5663 404.15 101.2 403.033 103.61C401.718 106.167 399.721 108.309 397.263 109.8C393.842 111.912 390.11 113.472 386.203 114.42C380.463 115.886 374.614 116.89 368.713 117.42C368.793 121.6 369.713 124.66 371.463 126.59C373.213 128.52 375.813 129.49 379.243 129.49C380.655 129.512 382.064 129.371 383.443 129.07C384.517 128.836 385.56 128.48 386.553 128.01C387.383 127.611 388.185 127.157 388.953 126.65L390.953 125.29C391.579 124.862 392.25 124.504 392.953 124.22C393.731 123.937 394.555 123.798 395.383 123.81C395.986 123.809 396.578 123.964 397.103 124.26C397.656 124.556 398.153 124.945 398.573 125.41L403.343 130.91ZM383.103 92.4004C381.588 92.4055 380.091 92.7326 378.712 93.3602C377.333 93.9877 376.103 94.9013 375.103 96.0404C372.594 98.8938 370.844 102.333 370.013 106.04C373.124 105.592 376.206 104.961 379.243 104.15C381.162 103.66 383.012 102.934 384.753 101.99C385.836 101.428 386.746 100.581 387.383 99.5404C387.836 98.6628 388.07 97.6882 388.063 96.7004C388.044 95.6177 387.623 94.5807 386.883 93.7904C386.393 93.2965 385.801 92.9161 385.147 92.6759C384.494 92.4358 383.797 92.3417 383.103 92.4004Z" fill="black"/>
<path d="M461.873 130.91C459.876 132.89 457.751 134.737 455.513 136.44C453.524 137.944 451.382 139.235 449.123 140.29C446.889 141.313 444.538 142.058 442.123 142.51C439.459 143.005 436.753 143.243 434.043 143.22C430.62 143.259 427.223 142.627 424.043 141.36C421.09 140.171 418.419 138.376 416.203 136.09C413.962 133.735 412.229 130.944 411.113 127.89C409.872 124.479 409.259 120.871 409.303 117.24C409.299 114.012 409.668 110.794 410.403 107.65C411.108 104.614 412.158 101.668 413.533 98.8704C414.88 96.1468 416.56 93.6007 418.533 91.2904C420.466 88.9963 422.703 86.9776 425.183 85.2904C430.358 81.8237 436.455 79.9912 442.683 80.0304C445.651 79.978 448.605 80.459 451.403 81.4504C453.752 82.2741 455.929 83.5251 457.823 85.1404C459.493 86.5555 460.854 88.2981 461.823 90.2604C462.694 92.0178 463.155 93.9494 463.173 95.9104C463.204 98.5562 462.637 101.175 461.513 103.57C460.192 106.122 458.196 108.263 455.743 109.76C452.319 111.872 448.583 113.431 444.673 114.38C438.936 115.847 433.091 116.851 427.193 117.38C427.273 121.56 428.193 124.62 429.943 126.55C431.693 128.48 434.293 129.45 437.723 129.45C439.135 129.472 440.544 129.331 441.923 129.03C442.997 128.798 444.041 128.442 445.033 127.97C445.863 127.571 446.665 127.117 447.433 126.61L449.433 125.25C450.059 124.822 450.73 124.464 451.433 124.18C452.211 123.897 453.035 123.758 453.863 123.77C454.463 123.768 455.053 123.923 455.573 124.22C456.131 124.513 456.632 124.903 457.053 125.37L461.873 130.91ZM441.633 92.4004C440.118 92.4055 438.621 92.7327 437.242 93.3602C435.863 93.9877 434.633 94.9013 433.633 96.0404C431.121 98.8914 429.37 102.331 428.543 106.04C431.654 105.591 434.736 104.96 437.773 104.15C439.69 103.664 441.538 102.938 443.273 101.99C444.359 101.428 445.272 100.581 445.913 99.5404C446.366 98.6628 446.6 97.6882 446.593 96.7004C446.57 95.6166 446.146 94.5797 445.403 93.7904C444.915 93.2967 444.324 92.9164 443.673 92.6762C443.021 92.436 442.325 92.3418 441.633 92.4004Z" fill="black"/>
<path d="M517.973 88.2004C517.974 89.4524 517.753 90.6947 517.323 91.8704C516.951 92.9428 516.366 93.9291 515.603 94.7704L489.973 128.62H517.383V142.23H468.853V134.78C468.897 133.808 469.097 132.85 469.443 131.94C469.851 130.782 470.449 129.701 471.213 128.74L497.083 94.4704H470.503V80.9104H517.973V88.2004Z" fill="black"/>
<path d="M554.783 79.9104C559.122 79.8582 563.434 80.6039 567.503 82.1104C571.194 83.4837 574.554 85.6203 577.363 88.3804C580.158 91.204 582.335 94.5791 583.753 98.2904C585.326 102.479 586.1 106.926 586.033 111.4C586.103 115.913 585.333 120.399 583.763 124.63C582.35 128.371 580.174 131.777 577.373 134.63C574.572 137.412 571.211 139.567 567.513 140.95C563.45 142.482 559.135 143.238 554.793 143.18C550.416 143.229 546.068 142.459 541.973 140.91C538.233 139.529 534.826 137.376 531.973 134.59C529.134 131.756 526.935 128.346 525.523 124.59C523.95 120.36 523.177 115.874 523.243 111.36C523.177 106.886 523.95 102.439 525.523 98.2504C526.963 94.5331 529.183 91.1675 532.033 88.3804C534.894 85.6171 538.3 83.4816 542.033 82.1104C546.114 80.6086 550.435 79.8631 554.783 79.9104ZM554.783 129.57C559.003 129.57 562.11 128.08 564.103 125.1C566.097 122.12 567.097 117.594 567.103 111.52C567.103 105.44 566.103 100.93 564.103 97.9604C562.103 94.9904 559.003 93.5304 554.783 93.5304C550.563 93.5304 547.263 95.0104 545.253 97.9604C543.243 100.91 542.253 105.44 542.253 111.52C542.253 117.6 543.253 122.12 545.253 125.1C547.253 128.08 550.433 129.57 554.783 129.57Z" fill="black"/>
<path d="M688.113 57.4304V142.23H678.033V79.9104C678.033 79.0904 678.033 78.2004 678.123 77.2504C678.213 76.3004 678.253 75.3404 678.333 74.3504L649.213 127.35C648.869 128.158 648.291 128.845 647.553 129.321C646.815 129.797 645.951 130.041 645.073 130.02H643.433C642.555 130.041 641.691 129.797 640.953 129.321C640.215 128.845 639.637 128.158 639.293 127.35L609.583 74.1204C609.813 76.042 609.933 77.9751 609.943 79.9104V142.23H599.873V57.4304H608.343C609.144 57.3989 609.945 57.5002 610.713 57.7304C611.422 58.075 611.985 58.6596 612.303 59.3804L641.603 111.58C642.073 112.58 642.533 113.51 642.993 114.58C643.453 115.65 643.863 116.65 644.263 117.71C644.653 116.65 645.073 115.59 645.503 114.55C645.933 113.51 646.413 112.55 646.923 111.55L675.683 59.4104C675.981 58.6793 676.546 58.0892 677.263 57.7604C678.038 57.5319 678.846 57.4306 679.653 57.4604L688.113 57.4304Z" fill="black"/>
<path d="M754.103 133.83C752.77 135.439 751.191 136.827 749.423 137.94C747.6 139.118 745.647 140.081 743.603 140.81C741.517 141.562 739.369 142.127 737.183 142.5C735.009 142.872 732.809 143.063 730.603 143.07C726.686 143.098 722.801 142.364 719.163 140.91C715.723 139.561 712.627 137.46 710.103 134.76C707.424 131.885 705.379 128.478 704.103 124.76C702.634 120.342 701.934 115.705 702.033 111.05C702.001 107.06 702.65 103.093 703.953 99.3204C705.152 95.8472 707.033 92.6482 709.483 89.9104C711.935 87.2068 714.944 85.0676 718.303 83.6404C722.008 82.057 726.005 81.27 730.033 81.3304C733.451 81.298 736.844 81.9121 740.033 83.1404C743.017 84.2931 745.721 86.0693 747.963 88.3504C750.275 90.7536 752.057 93.6153 753.193 96.7504C754.51 100.401 755.154 104.26 755.093 108.14C755.189 109.274 755.007 110.413 754.563 111.46C754.328 111.757 754.021 111.988 753.67 112.132C753.32 112.275 752.939 112.326 752.563 112.28H712.443C712.486 115.632 713.012 118.959 714.003 122.16C714.81 124.732 716.13 127.113 717.883 129.16C719.497 131.009 721.526 132.448 723.803 133.36C726.254 134.327 728.87 134.802 731.503 134.76C733.814 134.806 736.119 134.493 738.333 133.83C740.033 133.304 741.686 132.635 743.273 131.83C744.459 131.222 745.614 130.555 746.733 129.83C747.428 129.297 748.261 128.974 749.133 128.9C749.524 128.885 749.912 128.969 750.262 129.144C750.611 129.318 750.911 129.579 751.133 129.9L754.103 133.83ZM745.583 105.72C745.621 103.441 745.283 101.17 744.583 99.0004C743.952 97.0578 742.932 95.2645 741.583 93.7304C740.254 92.2397 738.607 91.0674 736.763 90.3004C734.718 89.4632 732.523 89.0514 730.313 89.0904C725.26 89.0904 721.26 90.5604 718.313 93.5004C715.367 96.4404 713.54 100.514 712.833 105.72H745.583Z" fill="black"/>
<path d="M785.943 143.18C781.213 143.18 777.573 141.85 775.023 139.18C772.473 136.51 771.213 132.72 771.213 127.76V91.1004H764.033C763.452 91.1158 762.886 90.9164 762.443 90.5404C762.212 90.315 762.034 90.0411 761.921 89.7385C761.809 89.4359 761.765 89.112 761.793 88.7904V84.5904L771.613 83.3504L774.033 64.8304C774.128 64.2705 774.41 63.7593 774.833 63.3804C775.279 62.9874 775.86 62.7831 776.453 62.8104H781.783V83.4604H799.123V91.1004H781.743V127.1C781.743 129.63 782.353 131.51 783.583 132.72C784.204 133.334 784.944 133.813 785.758 134.128C786.571 134.443 787.441 134.587 788.313 134.55C789.287 134.572 790.258 134.426 791.183 134.12C791.913 133.853 792.616 133.518 793.283 133.12C793.873 132.77 794.373 132.44 794.783 132.12C795.098 131.867 795.481 131.71 795.883 131.67C796.195 131.695 796.496 131.8 796.755 131.975C797.015 132.15 797.224 132.39 797.363 132.67L800.443 137.67C798.54 139.426 796.307 140.786 793.873 141.67C791.343 142.649 788.656 143.161 785.943 143.18Z" fill="black"/>
<path d="M858.323 133.83C856.987 135.436 855.408 136.823 853.643 137.94C851.817 139.118 849.861 140.081 847.813 140.81C845.728 141.563 843.579 142.128 841.393 142.5C839.223 142.872 837.025 143.063 834.823 143.07C830.903 143.098 827.014 142.364 823.373 140.91C819.937 139.558 816.845 137.457 814.323 134.76C811.661 131.881 809.634 128.474 808.373 124.76C806.883 120.343 806.162 115.702 806.243 111.04C806.211 107.05 806.86 103.083 808.163 99.3104C809.363 95.8382 811.247 92.6418 813.703 89.9104C816.151 87.2073 819.157 85.068 822.513 83.6404C826.217 82.0666 830.209 81.2865 834.233 81.3504C837.651 81.3153 841.044 81.9295 844.233 83.1604C847.217 84.3131 849.921 86.0893 852.163 88.3704C854.478 90.7731 856.263 93.6347 857.403 96.7704C858.717 100.422 859.357 104.281 859.293 108.16C859.396 109.294 859.214 110.435 858.763 111.48C858.529 111.778 858.222 112.011 857.871 112.154C857.521 112.298 857.139 112.348 856.763 112.3H816.653C816.704 115.652 817.233 118.978 818.223 122.18C819.026 124.754 820.346 127.136 822.103 129.18C823.713 131.028 825.739 132.468 828.013 133.38C830.464 134.347 833.08 134.822 835.713 134.78C838.024 134.828 840.329 134.514 842.543 133.85C844.264 133.329 845.937 132.66 847.543 131.85C848.923 131.14 850.073 130.47 851.003 129.85C851.697 129.315 852.53 128.992 853.403 128.92C853.794 128.907 854.181 128.991 854.53 129.166C854.88 129.341 855.18 129.6 855.403 129.92L858.323 133.83ZM849.803 105.72C849.841 103.441 849.503 101.17 848.803 99.0004C848.169 97.0594 847.148 95.2668 845.803 93.7304C844.471 92.244 842.824 91.0724 840.983 90.3004C838.938 89.464 836.743 89.0523 834.533 89.0904C829.48 89.0904 825.48 90.5604 822.533 93.5004C819.587 96.4404 817.753 100.514 817.033 105.72H849.803Z" fill="black"/>
<path d="M882.173 94.3004C883.762 90.6132 886.154 87.3267 889.173 84.6804C892.017 82.3416 895.613 81.1124 899.293 81.2204C900.518 81.2183 901.739 81.3559 902.933 81.6304C904.034 81.8717 905.083 82.305 906.033 82.9104L905.263 90.7804C905.213 91.2064 905.002 91.5971 904.672 91.8723C904.343 92.1475 903.921 92.2863 903.493 92.2604C902.663 92.2292 901.839 92.1119 901.033 91.9104C899.847 91.6578 898.636 91.537 897.423 91.5504C895.721 91.5289 894.028 91.8099 892.423 92.3804C890.941 92.929 889.582 93.765 888.423 94.8404C887.183 96.0076 886.128 97.3563 885.293 98.8404C884.291 100.584 883.447 102.415 882.773 104.31V142.19H872.173V82.2804H878.173C879.017 82.188 879.865 82.4204 880.543 82.9304C881.065 83.5705 881.376 84.3565 881.433 85.1804L882.173 94.3004Z" fill="black"/>
<defs>
<linearGradient id="paint0_linear" x1="188.751" y1="100.047" x2="107.564" y2="201.713" gradientUnits="userSpaceOnUse">
<stop stop-color="#F8D742"/>
<stop offset="0.115385" stop-color="#FFCB41"/>
<stop offset="0.264506" stop-color="#FFB040"/>
<stop offset="0.397168" stop-color="#FF9C3E"/>
<stop offset="0.536394" stop-color="#E36F27"/>
<stop offset="0.731934" stop-color="#CE4018"/>
<stop offset="1" stop-color="#AB2203"/>
</linearGradient>
<linearGradient id="paint1_linear" x1="179" y1="100" x2="62.1948" y2="10.006" gradientUnits="userSpaceOnUse">
<stop offset="0.0244707" stop-color="#F8D742"/>
<stop offset="0.186819" stop-color="#94D750"/>
<stop offset="0.340767" stop-color="#25D75A"/>
<stop offset="0.483766" stop-color="#1DD971"/>
<stop offset="0.638107" stop-color="#1BE5B7"/>
<stop offset="0.807161" stop-color="#0A9BB7"/>
<stop offset="1" stop-color="#005F98"/>
</linearGradient>
<linearGradient id="paint2_linear" x1="99.8479" y1="26.5" x2="99.8479" y2="200" gradientUnits="userSpaceOnUse">
<stop stop-color="#262626"/>
<stop offset="1" stop-color="#262626" stop-opacity="0"/>
</linearGradient>
</defs>
</svg>
